<svg width="901" height="648" viewBox="0 0 901 648" fill="none" xmlns="http://www.w3.org/2000/svg">
<rect x="89" width="773" height="648" fill="url(#paint0_linear_237_148)"/>
<path d="M533.04 167C533.04 185.68 517.469 201 498.04 201C478.611 201 463.04 185.68 463.04 167C463.04 148.32 478.611 133 498.04 133C517.469 133 533.04 148.32 533.04 167Z" stroke="black" stroke-width="8"/>
<path d="M467.24 186.6L415.54 226.5" stroke="black" stroke-width="10"/>
<path d="M424.781 277.48C331.342 354.334 255.092 234.756 90 354.334L38 521.5H896.5C901.833 513.5 909.5 388 854 422.112C798.5 456.223 701.6 460.236 636.143 368.858C570.685 277.48 518.22 200.625 424.781 277.48Z" fill="url(#paint1_linear_237_148)" style="mix-blend-mode:overlay"/>
<path d="M386.781 326.48C293.342 403.334 217.092 283.756 52 403.334L0 570.5H858.5C863.833 562.5 871.5 437 816 471.112C760.5 505.223 663.6 509.236 598.143 417.858C532.685 326.48 480.22 249.625 386.781 326.48Z" fill="url(#paint2_linear_237_148)" style="mix-blend-mode:overlay"/>
<path d="M231.5 528H229.68L222.36 516.9V528H220.54V514.04H222.36L229.68 525.12V514.04H231.5V528ZM239.383 528.18C238.356 528.18 237.423 527.947 236.583 527.48C235.756 527.013 235.103 526.353 234.623 525.5C234.156 524.633 233.923 523.633 233.923 522.5C233.923 521.38 234.163 520.393 234.643 519.54C235.136 518.673 235.803 518.013 236.643 517.56C237.483 517.093 238.423 516.86 239.463 516.86C240.503 516.86 241.443 517.093 242.283 517.56C243.123 518.013 243.783 518.667 244.263 519.52C244.756 520.373 245.003 521.367 245.003 522.5C245.003 523.633 244.749 524.633 244.243 525.5C243.749 526.353 243.076 527.013 242.223 527.48C241.369 527.947 240.423 528.18 239.383 528.18ZM239.383 526.58C240.036 526.58 240.649 526.427 241.223 526.12C241.796 525.813 242.256 525.353 242.603 524.74C242.963 524.127 243.143 523.38 243.143 522.5C243.143 521.62 242.969 520.873 242.623 520.26C242.276 519.647 241.823 519.193 241.263 518.9C240.703 518.593 240.096 518.44 239.443 518.44C238.776 518.44 238.163 518.593 237.603 518.9C237.056 519.193 236.616 519.647 236.283 520.26C235.949 520.873 235.783 521.62 235.783 522.5C235.783 523.393 235.943 524.147 236.263 524.76C236.596 525.373 237.036 525.833 237.583 526.14C238.129 526.433 238.729 526.58 239.383 526.58ZM254.548 515.54V520.2H259.628V521.7H254.548V526.5H260.228V528H252.728V514.04H260.228V515.54H254.548ZM268.701 528L266.101 523.92L263.601 528H261.701L265.241 522.56L261.701 517.04H263.761L266.361 521.1L268.841 517.04H270.741L267.221 522.46L270.761 528H268.701ZM271.872 522.48C271.872 521.36 272.098 520.38 272.552 519.54C273.005 518.687 273.625 518.027 274.412 517.56C275.212 517.093 276.098 516.86 277.072 516.86C278.032 516.86 278.865 517.067 279.572 517.48C280.278 517.893 280.805 518.413 281.152 519.04V517.04H282.992V528H281.152V525.96C280.792 526.6 280.252 527.133 279.532 527.56C278.825 527.973 277.998 528.18 277.052 528.18C276.078 528.18 275.198 527.94 274.412 527.46C273.625 526.98 273.005 526.307 272.552 525.44C272.098 524.573 271.872 523.587 271.872 522.48ZM281.152 522.5C281.152 521.673 280.985 520.953 280.652 520.34C280.318 519.727 279.865 519.26 279.292 518.94C278.732 518.607 278.112 518.44 277.432 518.44C276.752 518.44 276.132 518.6 275.572 518.92C275.012 519.24 274.565 519.707 274.232 520.32C273.898 520.933 273.732 521.653 273.732 522.48C273.732 523.32 273.898 524.053 274.232 524.68C274.565 525.293 275.012 525.767 275.572 526.1C276.132 526.42 276.752 526.58 277.432 526.58C278.112 526.58 278.732 526.42 279.292 526.1C279.865 525.767 280.318 525.293 280.652 524.68C280.985 524.053 281.152 523.327 281.152 522.5ZM299.247 516.84C300.101 516.84 300.861 517.02 301.527 517.38C302.194 517.727 302.721 518.253 303.107 518.96C303.494 519.667 303.687 520.527 303.687 521.54V528H301.887V521.8C301.887 520.707 301.614 519.873 301.067 519.3C300.534 518.713 299.807 518.42 298.887 518.42C297.941 518.42 297.187 518.727 296.627 519.34C296.067 519.94 295.787 520.813 295.787 521.96V528H293.987V521.8C293.987 520.707 293.714 519.873 293.167 519.3C292.634 518.713 291.907 518.42 290.987 518.42C290.041 518.42 289.287 518.727 288.727 519.34C288.167 519.94 287.887 520.813 287.887 521.96V528H286.067V517.04H287.887V518.62C288.247 518.047 288.727 517.607 289.327 517.3C289.941 516.993 290.614 516.84 291.347 516.84C292.267 516.84 293.081 517.047 293.787 517.46C294.494 517.873 295.021 518.48 295.367 519.28C295.674 518.507 296.181 517.907 296.887 517.48C297.594 517.053 298.381 516.84 299.247 516.84ZM310.553 528.18C309.713 528.18 308.959 528.04 308.293 527.76C307.626 527.467 307.099 527.067 306.713 526.56C306.326 526.04 306.113 525.447 306.073 524.78H307.953C308.006 525.327 308.259 525.773 308.713 526.12C309.179 526.467 309.786 526.64 310.533 526.64C311.226 526.64 311.773 526.487 312.173 526.18C312.573 525.873 312.773 525.487 312.773 525.02C312.773 524.54 312.559 524.187 312.133 523.96C311.706 523.72 311.046 523.487 310.153 523.26C309.339 523.047 308.673 522.833 308.153 522.62C307.646 522.393 307.206 522.067 306.833 521.64C306.473 521.2 306.293 520.627 306.293 519.92C306.293 519.36 306.459 518.847 306.793 518.38C307.126 517.913 307.599 517.547 308.213 517.28C308.826 517 309.526 516.86 310.313 516.86C311.526 516.86 312.506 517.167 313.253 517.78C313.999 518.393 314.399 519.233 314.453 520.3H312.633C312.593 519.727 312.359 519.267 311.933 518.92C311.519 518.573 310.959 518.4 310.253 518.4C309.599 518.4 309.079 518.54 308.693 518.82C308.306 519.1 308.113 519.467 308.113 519.92C308.113 520.28 308.226 520.58 308.453 520.82C308.693 521.047 308.986 521.233 309.333 521.38C309.693 521.513 310.186 521.667 310.813 521.84C311.599 522.053 312.239 522.267 312.733 522.48C313.226 522.68 313.646 522.987 313.993 523.4C314.353 523.813 314.539 524.353 314.553 525.02C314.553 525.62 314.386 526.16 314.053 526.64C313.719 527.12 313.246 527.5 312.633 527.78C312.033 528.047 311.339 528.18 310.553 528.18ZM330.694 524.9H324.614L323.494 528H321.574L326.614 514.14H328.714L333.734 528H331.814L330.694 524.9ZM330.174 523.42L327.654 516.38L325.134 523.42H330.174ZM337.751 518.82C338.071 518.193 338.524 517.707 339.111 517.36C339.711 517.013 340.437 516.84 341.291 516.84V518.72H340.811C338.771 518.72 337.751 519.827 337.751 522.04V528H335.931V517.04H337.751V518.82ZM353.392 522.1C353.392 522.447 353.372 522.813 353.332 523.2H344.572C344.638 524.28 345.005 525.127 345.672 525.74C346.352 526.34 347.172 526.64 348.132 526.64C348.918 526.64 349.572 526.46 350.092 526.1C350.625 525.727 350.998 525.233 351.212 524.62H353.172C352.878 525.673 352.292 526.533 351.412 527.2C350.532 527.853 349.438 528.18 348.132 528.18C347.092 528.18 346.158 527.947 345.332 527.48C344.518 527.013 343.878 526.353 343.412 525.5C342.945 524.633 342.712 523.633 342.712 522.5C342.712 521.367 342.938 520.373 343.392 519.52C343.845 518.667 344.478 518.013 345.292 517.56C346.118 517.093 347.065 516.86 348.132 516.86C349.172 516.86 350.092 517.087 350.892 517.54C351.692 517.993 352.305 518.62 352.732 519.42C353.172 520.207 353.392 521.1 353.392 522.1ZM351.512 521.72C351.512 521.027 351.358 520.433 351.052 519.94C350.745 519.433 350.325 519.053 349.792 518.8C349.272 518.533 348.692 518.4 348.052 518.4C347.132 518.4 346.345 518.693 345.692 519.28C345.052 519.867 344.685 520.68 344.592 521.72H351.512ZM365.466 514.06C366.986 514.06 368.299 514.347 369.406 514.92C370.526 515.48 371.379 516.287 371.966 517.34C372.566 518.393 372.866 519.633 372.866 521.06C372.866 522.487 372.566 523.727 371.966 524.78C371.379 525.82 370.526 526.62 369.406 527.18C368.299 527.727 366.986 528 365.466 528H361.126V514.06H365.466ZM365.466 526.5C367.266 526.5 368.639 526.027 369.586 525.08C370.533 524.12 371.006 522.78 371.006 521.06C371.006 519.327 370.526 517.973 369.566 517C368.619 516.027 367.253 515.54 365.466 515.54H362.946V526.5H365.466ZM380.047 528.18C379.02 528.18 378.087 527.947 377.247 527.48C376.42 527.013 375.767 526.353 375.287 525.5C374.82 524.633 374.587 523.633 374.587 522.5C374.587 521.38 374.827 520.393 375.307 519.54C375.8 518.673 376.467 518.013 377.307 517.56C378.147 517.093 379.087 516.86 380.127 516.86C381.167 516.86 382.107 517.093 382.947 517.56C383.787 518.013 384.447 518.667 384.927 519.52C385.42 520.373 385.667 521.367 385.667 522.5C385.667 523.633 385.413 524.633 384.907 525.5C384.413 526.353 383.74 527.013 382.887 527.48C382.033 527.947 381.087 528.18 380.047 528.18ZM380.047 526.58C380.7 526.58 381.313 526.427 381.887 526.12C382.46 525.813 382.92 525.353 383.267 524.74C383.627 524.127 383.807 523.38 383.807 522.5C383.807 521.62 383.633 520.873 383.287 520.26C382.94 519.647 382.487 519.193 381.927 518.9C381.367 518.593 380.76 518.44 380.107 518.44C379.44 518.44 378.827 518.593 378.267 518.9C377.72 519.193 377.28 519.647 376.947 520.26C376.613 520.873 376.447 521.62 376.447 522.5C376.447 523.393 376.607 524.147 376.927 524.76C377.26 525.373 377.7 525.833 378.247 526.14C378.793 526.433 379.393 526.58 380.047 526.58ZM393.4 516.84C394.733 516.84 395.813 517.247 396.64 518.06C397.466 518.86 397.88 520.02 397.88 521.54V528H396.08V521.8C396.08 520.707 395.806 519.873 395.26 519.3C394.713 518.713 393.966 518.42 393.02 518.42C392.06 518.42 391.293 518.72 390.72 519.32C390.16 519.92 389.88 520.793 389.88 521.94V528H388.06V517.04H389.88V518.6C390.24 518.04 390.726 517.607 391.34 517.3C391.966 516.993 392.653 516.84 393.4 516.84ZM410.853 522.1C410.853 522.447 410.833 522.813 410.793 523.2H402.033C402.099 524.28 402.466 525.127 403.133 525.74C403.813 526.34 404.633 526.64 405.593 526.64C406.379 526.64 407.033 526.46 407.553 526.1C408.086 525.727 408.459 525.233 408.673 524.62H410.633C410.339 525.673 409.753 526.533 408.873 527.2C407.993 527.853 406.899 528.18 405.593 528.18C404.553 528.18 403.619 527.947 402.793 527.48C401.979 527.013 401.339 526.353 400.873 525.5C400.406 524.633 400.173 523.633 400.173 522.5C400.173 521.367 400.399 520.373 400.853 519.52C401.306 518.667 401.939 518.013 402.753 517.56C403.579 517.093 404.526 516.86 405.593 516.86C406.633 516.86 407.553 517.087 408.353 517.54C409.153 517.993 409.766 518.62 410.193 519.42C410.633 520.207 410.853 521.1 410.853 522.1ZM408.973 521.72C408.973 521.027 408.819 520.433 408.513 519.94C408.206 519.433 407.786 519.053 407.253 518.8C406.733 518.533 406.153 518.4 405.513 518.4C404.593 518.4 403.806 518.693 403.153 519.28C402.513 519.867 402.146 520.68 402.053 521.72H408.973ZM423.367 528.18C422.34 528.18 421.407 527.947 420.567 527.48C419.74 527.013 419.087 526.353 418.607 525.5C418.14 524.633 417.907 523.633 417.907 522.5C417.907 521.38 418.147 520.393 418.627 519.54C419.12 518.673 419.787 518.013 420.627 517.56C421.467 517.093 422.407 516.86 423.447 516.86C424.487 516.86 425.427 517.093 426.267 517.56C427.107 518.013 427.767 518.667 428.247 519.52C428.74 520.373 428.987 521.367 428.987 522.5C428.987 523.633 428.734 524.633 428.227 525.5C427.734 526.353 427.06 527.013 426.207 527.48C425.354 527.947 424.407 528.18 423.367 528.18ZM423.367 526.58C424.02 526.58 424.634 526.427 425.207 526.12C425.78 525.813 426.24 525.353 426.587 524.74C426.947 524.127 427.127 523.38 427.127 522.5C427.127 521.62 426.954 520.873 426.607 520.26C426.26 519.647 425.807 519.193 425.247 518.9C424.687 518.593 424.08 518.44 423.427 518.44C422.76 518.44 422.147 518.593 421.587 518.9C421.04 519.193 420.6 519.647 420.267 520.26C419.934 520.873 419.767 521.62 419.767 522.5C419.767 523.393 419.927 524.147 420.247 524.76C420.58 525.373 421.02 525.833 421.567 526.14C422.114 526.433 422.714 526.58 423.367 526.58ZM433.2 518.82C433.52 518.193 433.973 517.707 434.56 517.36C435.16 517.013 435.887 516.84 436.74 516.84V518.72H436.26C434.22 518.72 433.2 519.827 433.2 522.04V528H431.38V517.04H433.2V518.82ZM445.993 518.82C446.313 518.193 446.766 517.707 447.353 517.36C447.953 517.013 448.679 516.84 449.533 516.84V518.72H449.053C447.013 518.72 445.993 519.827 445.993 522.04V528H444.173V517.04H445.993V518.82ZM461.634 522.1C461.634 522.447 461.614 522.813 461.574 523.2H452.814C452.88 524.28 453.247 525.127 453.914 525.74C454.594 526.34 455.414 526.64 456.374 526.64C457.16 526.64 457.814 526.46 458.334 526.1C458.867 525.727 459.24 525.233 459.454 524.62H461.414C461.12 525.673 460.534 526.533 459.654 527.2C458.774 527.853 457.68 528.18 456.374 528.18C455.334 528.18 454.4 527.947 453.574 527.48C452.76 527.013 452.12 526.353 451.654 525.5C451.187 524.633 450.954 523.633 450.954 522.5C450.954 521.367 451.18 520.373 451.634 519.52C452.087 518.667 452.72 518.013 453.534 517.56C454.36 517.093 455.307 516.86 456.374 516.86C457.414 516.86 458.334 517.087 459.134 517.54C459.934 517.993 460.547 518.62 460.974 519.42C461.414 520.207 461.634 521.1 461.634 522.1ZM459.754 521.72C459.754 521.027 459.6 520.433 459.294 519.94C458.987 519.433 458.567 519.053 458.034 518.8C457.514 518.533 456.934 518.4 456.294 518.4C455.374 518.4 454.587 518.693 453.934 519.28C453.294 519.867 452.927 520.68 452.834 521.72H459.754ZM467.916 528.18C467.076 528.18 466.323 528.04 465.656 527.76C464.989 527.467 464.463 527.067 464.076 526.56C463.689 526.04 463.476 525.447 463.436 524.78H465.316C465.369 525.327 465.623 525.773 466.076 526.12C466.543 526.467 467.149 526.64 467.896 526.64C468.589 526.64 469.136 526.487 469.536 526.18C469.936 525.873 470.136 525.487 470.136 525.02C470.136 524.54 469.923 524.187 469.496 523.96C469.069 523.72 468.409 523.487 467.516 523.26C466.703 523.047 466.036 522.833 465.516 522.62C465.009 522.393 464.569 522.067 464.196 521.64C463.836 521.2 463.656 520.627 463.656 519.92C463.656 519.36 463.823 518.847 464.156 518.38C464.489 517.913 464.963 517.547 465.576 517.28C466.189 517 466.889 516.86 467.676 516.86C468.889 516.86 469.869 517.167 470.616 517.78C471.363 518.393 471.763 519.233 471.816 520.3H469.996C469.956 519.727 469.723 519.267 469.296 518.92C468.883 518.573 468.323 518.4 467.616 518.4C466.963 518.4 466.443 518.54 466.056 518.82C465.669 519.1 465.476 519.467 465.476 519.92C465.476 520.28 465.589 520.58 465.816 520.82C466.056 521.047 466.349 521.233 466.696 521.38C467.056 521.513 467.549 521.667 468.176 521.84C468.963 522.053 469.603 522.267 470.096 522.48C470.589 522.68 471.009 522.987 471.356 523.4C471.716 523.813 471.903 524.353 471.916 525.02C471.916 525.62 471.749 526.16 471.416 526.64C471.083 527.12 470.609 527.5 469.996 527.78C469.396 528.047 468.703 528.18 467.916 528.18ZM484.205 517.04V528H482.385V526.38C482.039 526.94 481.552 527.38 480.925 527.7C480.312 528.007 479.632 528.16 478.885 528.16C478.032 528.16 477.265 527.987 476.585 527.64C475.905 527.28 475.365 526.747 474.965 526.04C474.579 525.333 474.385 524.473 474.385 523.46V517.04H476.185V523.22C476.185 524.3 476.459 525.133 477.005 525.72C477.552 526.293 478.299 526.58 479.245 526.58C480.219 526.58 480.985 526.28 481.545 525.68C482.105 525.08 482.385 524.207 482.385 523.06V517.04H484.205ZM489.098 513.2V528H487.278V513.2H489.098ZM494.42 518.54V525C494.42 525.533 494.533 525.913 494.76 526.14C494.987 526.353 495.38 526.46 495.94 526.46H497.28V528H495.64C494.627 528 493.867 527.767 493.36 527.3C492.853 526.833 492.6 526.067 492.6 525V518.54H491.18V517.04H492.6V514.28H494.42V517.04H497.28V518.54H494.42ZM503.365 528.18C502.525 528.18 501.772 528.04 501.105 527.76C500.439 527.467 499.912 527.067 499.525 526.56C499.139 526.04 498.925 525.447 498.885 524.78H500.765C500.819 525.327 501.072 525.773 501.525 526.12C501.992 526.467 502.599 526.64 503.345 526.64C504.039 526.64 504.585 526.487 504.985 526.18C505.385 525.873 505.585 525.487 505.585 525.02C505.585 524.54 505.372 524.187 504.945 523.96C504.519 523.72 503.859 523.487 502.965 523.26C502.152 523.047 501.485 522.833 500.965 522.62C500.459 522.393 500.019 522.067 499.645 521.64C499.285 521.2 499.105 520.627 499.105 519.92C499.105 519.36 499.272 518.847 499.605 518.38C499.939 517.913 500.412 517.547 501.025 517.28C501.639 517 502.339 516.86 503.125 516.86C504.339 516.86 505.319 517.167 506.065 517.78C506.812 518.393 507.212 519.233 507.265 520.3H505.445C505.405 519.727 505.172 519.267 504.745 518.92C504.332 518.573 503.772 518.4 503.065 518.4C502.412 518.4 501.892 518.54 501.505 518.82C501.119 519.1 500.925 519.467 500.925 519.92C500.925 520.28 501.039 520.58 501.265 520.82C501.505 521.047 501.799 521.233 502.145 521.38C502.505 521.513 502.999 521.667 503.625 521.84C504.412 522.053 505.052 522.267 505.545 522.48C506.039 522.68 506.459 522.987 506.805 523.4C507.165 523.813 507.352 524.353 507.365 525.02C507.365 525.62 507.199 526.16 506.865 526.64C506.532 527.12 506.059 527.5 505.445 527.78C504.845 528.047 504.152 528.18 503.365 528.18ZM520.707 516.84C521.533 516.84 522.28 517.02 522.947 517.38C523.613 517.727 524.133 518.253 524.507 518.96C524.893 519.667 525.087 520.527 525.087 521.54V528H523.287V521.8C523.287 520.707 523.013 519.873 522.467 519.3C521.92 518.713 521.173 518.42 520.227 518.42C519.267 518.42 518.5 518.72 517.927 519.32C517.367 519.92 517.087 520.793 517.087 521.94V528H515.267V513.2H517.087V518.6C517.447 518.04 517.94 517.607 518.567 517.3C519.207 516.993 519.92 516.84 520.707 516.84ZM527.38 522.48C527.38 521.36 527.606 520.38 528.06 519.54C528.513 518.687 529.133 518.027 529.92 517.56C530.72 517.093 531.606 516.86 532.58 516.86C533.54 516.86 534.373 517.067 535.08 517.48C535.786 517.893 536.313 518.413 536.66 519.04V517.04H538.5V528H536.66V525.96C536.3 526.6 535.76 527.133 535.04 527.56C534.333 527.973 533.506 528.18 532.56 528.18C531.586 528.18 530.706 527.94 529.92 527.46C529.133 526.98 528.513 526.307 528.06 525.44C527.606 524.573 527.38 523.587 527.38 522.48ZM536.66 522.5C536.66 521.673 536.493 520.953 536.16 520.34C535.826 519.727 535.373 519.26 534.8 518.94C534.24 518.607 533.62 518.44 532.94 518.44C532.26 518.44 531.64 518.6 531.08 518.92C530.52 519.24 530.073 519.707 529.74 520.32C529.406 520.933 529.24 521.653 529.24 522.48C529.24 523.32 529.406 524.053 529.74 524.68C530.073 525.293 530.52 525.767 531.08 526.1C531.64 526.42 532.26 526.58 532.94 526.58C533.62 526.58 534.24 526.42 534.8 526.1C535.373 525.767 535.826 525.293 536.16 524.68C536.493 524.053 536.66 523.327 536.66 522.5ZM545.655 526.32L549.055 517.04H550.995L546.695 528H544.575L540.275 517.04H542.235L545.655 526.32ZM558.126 516.84C559.459 516.84 560.539 517.247 561.366 518.06C562.193 518.86 562.606 520.02 562.606 521.54V528H560.806V521.8C560.806 520.707 560.533 519.873 559.986 519.3C559.439 518.713 558.693 518.42 557.746 518.42C556.786 518.42 556.019 518.72 555.446 519.32C554.886 519.92 554.606 520.793 554.606 521.94V528H552.786V517.04H554.606V518.6C554.966 518.04 555.453 517.607 556.066 517.3C556.693 516.993 557.379 516.84 558.126 516.84ZM565.859 514.06H567.879L565.959 518.6H564.679L565.859 514.06ZM572.174 518.54V525C572.174 525.533 572.287 525.913 572.514 526.14C572.741 526.353 573.134 526.46 573.694 526.46H575.034V528H573.394C572.381 528 571.621 527.767 571.114 527.3C570.607 526.833 570.354 526.067 570.354 525V518.54H568.934V517.04H570.354V514.28H572.174V517.04H575.034V518.54H572.174ZM584.391 519.08C584.765 518.427 585.311 517.893 586.031 517.48C586.751 517.067 587.571 516.86 588.491 516.86C589.478 516.86 590.365 517.093 591.151 517.56C591.938 518.027 592.558 518.687 593.011 519.54C593.465 520.38 593.691 521.36 593.691 522.48C593.691 523.587 593.465 524.573 593.011 525.44C592.558 526.307 591.931 526.98 591.131 527.46C590.345 527.94 589.465 528.18 588.491 528.18C587.545 528.18 586.711 527.973 585.991 527.56C585.285 527.147 584.751 526.62 584.391 525.98V528H582.571V513.2H584.391V519.08ZM591.831 522.48C591.831 521.653 591.665 520.933 591.331 520.32C590.998 519.707 590.545 519.24 589.971 518.92C589.411 518.6 588.791 518.44 588.111 518.44C587.445 518.44 586.825 518.607 586.251 518.94C585.691 519.26 585.238 519.733 584.891 520.36C584.558 520.973 584.391 521.687 584.391 522.5C584.391 523.327 584.558 524.053 584.891 524.68C585.238 525.293 585.691 525.767 586.251 526.1C586.825 526.42 587.445 526.58 588.111 526.58C588.791 526.58 589.411 526.42 589.971 526.1C590.545 525.767 590.998 525.293 591.331 524.68C591.665 524.053 591.831 523.32 591.831 522.48ZM606.087 522.1C606.087 522.447 606.067 522.813 606.027 523.2H597.267C597.334 524.28 597.7 525.127 598.367 525.74C599.047 526.34 599.867 526.64 600.827 526.64C601.614 526.64 602.267 526.46 602.787 526.1C603.32 525.727 603.694 525.233 603.907 524.62H605.867C605.574 525.673 604.987 526.533 604.107 527.2C603.227 527.853 602.134 528.18 600.827 528.18C599.787 528.18 598.854 527.947 598.027 527.48C597.214 527.013 596.574 526.353 596.107 525.5C595.64 524.633 595.407 523.633 595.407 522.5C595.407 521.367 595.634 520.373 596.087 519.52C596.54 518.667 597.174 518.013 597.987 517.56C598.814 517.093 599.76 516.86 600.827 516.86C601.867 516.86 602.787 517.087 603.587 517.54C604.387 517.993 605 518.62 605.427 519.42C605.867 520.207 606.087 521.1 606.087 522.1ZM604.207 521.72C604.207 521.027 604.054 520.433 603.747 519.94C603.44 519.433 603.02 519.053 602.487 518.8C601.967 518.533 601.387 518.4 600.747 518.4C599.827 518.4 599.04 518.693 598.387 519.28C597.747 519.867 597.38 520.68 597.287 521.72H604.207ZM618.489 522.1C618.489 522.447 618.469 522.813 618.429 523.2H609.669C609.736 524.28 610.103 525.127 610.769 525.74C611.449 526.34 612.269 526.64 613.229 526.64C614.016 526.64 614.669 526.46 615.189 526.1C615.723 525.727 616.096 525.233 616.309 524.62H618.269C617.976 525.673 617.389 526.533 616.509 527.2C615.629 527.853 614.536 528.18 613.229 528.18C612.189 528.18 611.256 527.947 610.429 527.48C609.616 527.013 608.976 526.353 608.509 525.5C608.043 524.633 607.809 523.633 607.809 522.5C607.809 521.367 608.036 520.373 608.489 519.52C608.943 518.667 609.576 518.013 610.389 517.56C611.216 517.093 612.163 516.86 613.229 516.86C614.269 516.86 615.189 517.087 615.989 517.54C616.789 517.993 617.403 518.62 617.829 519.42C618.269 520.207 618.489 521.1 618.489 522.1ZM616.609 521.72C616.609 521.027 616.456 520.433 616.149 519.94C615.843 519.433 615.423 519.053 614.889 518.8C614.369 518.533 613.789 518.4 613.149 518.4C612.229 518.4 611.443 518.693 610.789 519.28C610.149 519.867 609.783 520.68 609.689 521.72H616.609ZM626.232 516.84C627.565 516.84 628.645 517.247 629.472 518.06C630.298 518.86 630.712 520.02 630.712 521.54V528H628.912V521.8C628.912 520.707 628.638 519.873 628.092 519.3C627.545 518.713 626.798 518.42 625.852 518.42C624.892 518.42 624.125 518.72 623.552 519.32C622.992 519.92 622.712 520.793 622.712 521.94V528H620.892V517.04H622.712V518.6C623.072 518.04 623.558 517.607 624.172 517.3C624.798 516.993 625.485 516.84 626.232 516.84ZM640.837 519.06C641.197 518.433 641.73 517.913 642.437 517.5C643.157 517.073 643.99 516.86 644.937 516.86C645.91 516.86 646.79 517.093 647.577 517.56C648.377 518.027 649.003 518.687 649.457 519.54C649.91 520.38 650.137 521.36 650.137 522.48C650.137 523.587 649.91 524.573 649.457 525.44C649.003 526.307 648.377 526.98 647.577 527.46C646.79 527.94 645.91 528.18 644.937 528.18C644.003 528.18 643.177 527.973 642.457 527.56C641.75 527.133 641.21 526.607 640.837 525.98V533.2H639.017V517.04H640.837V519.06ZM648.277 522.48C648.277 521.653 648.11 520.933 647.777 520.32C647.443 519.707 646.99 519.24 646.417 518.92C645.857 518.6 645.237 518.44 644.557 518.44C643.89 518.44 643.27 518.607 642.697 518.94C642.137 519.26 641.683 519.733 641.337 520.36C641.003 520.973 640.837 521.687 640.837 522.5C640.837 523.327 641.003 524.053 641.337 524.68C641.683 525.293 642.137 525.767 642.697 526.1C643.27 526.42 643.89 526.58 644.557 526.58C645.237 526.58 645.857 526.42 646.417 526.1C646.99 525.767 647.443 525.293 647.777 524.68C648.11 524.053 648.277 523.32 648.277 522.48ZM662.252 517.04V528H660.432V526.38C660.086 526.94 659.599 527.38 658.972 527.7C658.359 528.007 657.679 528.16 656.932 528.16C656.079 528.16 655.312 527.987 654.632 527.64C653.952 527.28 653.412 526.747 653.012 526.04C652.626 525.333 652.432 524.473 652.432 523.46V517.04H654.232V523.22C654.232 524.3 654.506 525.133 655.052 525.72C655.599 526.293 656.346 526.58 657.292 526.58C658.266 526.58 659.032 526.28 659.592 525.68C660.152 525.08 660.432 524.207 660.432 523.06V517.04H662.252ZM667.145 519.08C667.518 518.427 668.065 517.893 668.785 517.48C669.505 517.067 670.325 516.86 671.245 516.86C672.232 516.86 673.118 517.093 673.905 517.56C674.692 518.027 675.312 518.687 675.765 519.54C676.218 520.38 676.445 521.36 676.445 522.48C676.445 523.587 676.218 524.573 675.765 525.44C675.312 526.307 674.685 526.98 673.885 527.46C673.098 527.94 672.218 528.18 671.245 528.18C670.298 528.18 669.465 527.973 668.745 527.56C668.038 527.147 667.505 526.62 667.145 525.98V528H665.325V513.2H667.145V519.08ZM674.585 522.48C674.585 521.653 674.418 520.933 674.085 520.32C673.752 519.707 673.298 519.24 672.725 518.92C672.165 518.6 671.545 518.44 670.865 518.44C670.198 518.44 669.578 518.607 669.005 518.94C668.445 519.26 667.992 519.733 667.645 520.36C667.312 520.973 667.145 521.687 667.145 522.5C667.145 523.327 667.312 524.053 667.645 524.68C667.992 525.293 668.445 525.767 669.005 526.1C669.578 526.42 670.198 526.58 670.865 526.58C671.545 526.58 672.165 526.42 672.725 526.1C673.298 525.767 673.752 525.293 674.085 524.68C674.418 524.053 674.585 523.32 674.585 522.48ZM680.661 513.2V528H678.841V513.2H680.661ZM684.703 515.26C684.356 515.26 684.063 515.14 683.823 514.9C683.583 514.66 683.463 514.367 683.463 514.02C683.463 513.673 683.583 513.38 683.823 513.14C684.063 512.9 684.356 512.78 684.703 512.78C685.036 512.78 685.316 512.9 685.543 513.14C685.783 513.38 685.903 513.673 685.903 514.02C685.903 514.367 685.783 514.66 685.543 514.9C685.316 515.14 685.036 515.26 684.703 515.26ZM685.583 517.04V528H683.763V517.04H685.583ZM692.565 528.18C691.725 528.18 690.971 528.04 690.305 527.76C689.638 527.467 689.111 527.067 688.725 526.56C688.338 526.04 688.125 525.447 688.085 524.78H689.965C690.018 525.327 690.271 525.773 690.725 526.12C691.191 526.467 691.798 526.64 692.545 526.64C693.238 526.64 693.785 526.487 694.185 526.18C694.585 525.873 694.785 525.487 694.785 525.02C694.785 524.54 694.571 524.187 694.145 523.96C693.718 523.72 693.058 523.487 692.165 523.26C691.351 523.047 690.685 522.833 690.165 522.62C689.658 522.393 689.218 522.067 688.845 521.64C688.485 521.2 688.305 520.627 688.305 519.92C688.305 519.36 688.471 518.847 688.805 518.38C689.138 517.913 689.611 517.547 690.225 517.28C690.838 517 691.538 516.86 692.325 516.86C693.538 516.86 694.518 517.167 695.265 517.78C696.011 518.393 696.411 519.233 696.465 520.3H694.645C694.605 519.727 694.371 519.267 693.945 518.92C693.531 518.573 692.971 518.4 692.265 518.4C691.611 518.4 691.091 518.54 690.705 518.82C690.318 519.1 690.125 519.467 690.125 519.92C690.125 520.28 690.238 520.58 690.465 520.82C690.705 521.047 690.998 521.233 691.345 521.38C691.705 521.513 692.198 521.667 692.825 521.84C693.611 522.053 694.251 522.267 694.745 522.48C695.238 522.68 695.658 522.987 696.005 523.4C696.365 523.813 696.551 524.353 696.565 525.02C696.565 525.62 696.398 526.16 696.065 526.64C695.731 527.12 695.258 527.5 694.645 527.78C694.045 528.047 693.351 528.18 692.565 528.18ZM704.574 516.84C705.4 516.84 706.147 517.02 706.814 517.38C707.48 517.727 708 518.253 708.374 518.96C708.76 519.667 708.954 520.527 708.954 521.54V528H707.154V521.8C707.154 520.707 706.88 519.873 706.334 519.3C705.787 518.713 705.04 518.42 704.094 518.42C703.134 518.42 702.367 518.72 701.794 519.32C701.234 519.92 700.954 520.793 700.954 521.94V528H699.134V513.2H700.954V518.6C701.314 518.04 701.807 517.607 702.434 517.3C703.074 516.993 703.787 516.84 704.574 516.84ZM721.927 522.1C721.927 522.447 721.907 522.813 721.867 523.2H713.107C713.173 524.28 713.54 525.127 714.207 525.74C714.887 526.34 715.707 526.64 716.667 526.64C717.453 526.64 718.107 526.46 718.627 526.1C719.16 525.727 719.533 525.233 719.747 524.62H721.707C721.413 525.673 720.827 526.533 719.947 527.2C719.067 527.853 717.973 528.18 716.667 528.18C715.627 528.18 714.693 527.947 713.867 527.48C713.053 527.013 712.413 526.353 711.947 525.5C711.48 524.633 711.247 523.633 711.247 522.5C711.247 521.367 711.473 520.373 711.927 519.52C712.38 518.667 713.013 518.013 713.827 517.56C714.653 517.093 715.6 516.86 716.667 516.86C717.707 516.86 718.627 517.087 719.427 517.54C720.227 517.993 720.84 518.62 721.267 519.42C721.707 520.207 721.927 521.1 721.927 522.1ZM720.047 521.72C720.047 521.027 719.893 520.433 719.587 519.94C719.28 519.433 718.86 519.053 718.327 518.8C717.807 518.533 717.227 518.4 716.587 518.4C715.667 518.4 714.88 518.693 714.227 519.28C713.587 519.867 713.22 520.68 713.127 521.72H720.047ZM723.649 522.48C723.649 521.36 723.876 520.38 724.329 519.54C724.782 518.687 725.402 518.027 726.189 517.56C726.989 517.093 727.882 516.86 728.869 516.86C729.722 516.86 730.516 517.06 731.249 517.46C731.982 517.847 732.542 518.36 732.929 519V513.2H734.769V528H732.929V525.94C732.569 526.593 732.036 527.133 731.329 527.56C730.622 527.973 729.796 528.18 728.849 528.18C727.876 528.18 726.989 527.94 726.189 527.46C725.402 526.98 724.782 526.307 724.329 525.44C723.876 524.573 723.649 523.587 723.649 522.48ZM732.929 522.5C732.929 521.673 732.762 520.953 732.429 520.34C732.096 519.727 731.642 519.26 731.069 518.94C730.509 518.607 729.889 518.44 729.209 518.44C728.529 518.44 727.909 518.6 727.349 518.92C726.789 519.24 726.342 519.707 726.009 520.32C725.676 520.933 725.509 521.653 725.509 522.48C725.509 523.32 725.676 524.053 726.009 524.68C726.342 525.293 726.789 525.767 727.349 526.1C727.909 526.42 728.529 526.58 729.209 526.58C729.889 526.58 730.509 526.42 731.069 526.1C731.642 525.767 732.096 525.293 732.429 524.68C732.762 524.053 732.929 523.327 732.929 522.5ZM752.617 517.04L746.017 533.16H744.137L746.297 527.88L741.877 517.04H743.897L747.337 525.92L750.737 517.04H752.617ZM764.446 522.1C764.446 522.447 764.426 522.813 764.386 523.2H755.626C755.693 524.28 756.06 525.127 756.726 525.74C757.406 526.34 758.226 526.64 759.186 526.64C759.973 526.64 760.626 526.46 761.146 526.1C761.68 525.727 762.053 525.233 762.266 524.62H764.226C763.933 525.673 763.346 526.533 762.466 527.2C761.586 527.853 760.493 528.18 759.186 528.18C758.146 528.18 757.213 527.947 756.386 527.48C755.573 527.013 754.933 526.353 754.466 525.5C754 524.633 753.766 523.633 753.766 522.5C753.766 521.367 753.993 520.373 754.446 519.52C754.9 518.667 755.533 518.013 756.346 517.56C757.173 517.093 758.12 516.86 759.186 516.86C760.226 516.86 761.146 517.087 761.946 517.54C762.746 517.993 763.36 518.62 763.786 519.42C764.226 520.207 764.446 521.1 764.446 522.1ZM762.566 521.72C762.566 521.027 762.413 520.433 762.106 519.94C761.8 519.433 761.38 519.053 760.846 518.8C760.326 518.533 759.746 518.4 759.106 518.4C758.186 518.4 757.4 518.693 756.746 519.28C756.106 519.867 755.74 520.68 755.646 521.72H762.566ZM769.069 518.54V525C769.069 525.533 769.182 525.913 769.409 526.14C769.635 526.353 770.029 526.46 770.589 526.46H771.929V528H770.289C769.275 528 768.515 527.767 768.009 527.3C767.502 526.833 767.249 526.067 767.249 525V518.54H765.829V517.04H767.249V514.28H769.069V517.04H771.929V518.54H769.069ZM774.714 528.12C774.367 528.12 774.074 528 773.834 527.76C773.594 527.52 773.474 527.227 773.474 526.88C773.474 526.533 773.594 526.24 773.834 526C774.074 525.76 774.367 525.64 774.714 525.64C775.047 525.64 775.327 525.76 775.554 526C775.794 526.24 775.914 526.533 775.914 526.88C775.914 527.227 775.794 527.52 775.554 527.76C775.327 528 775.047 528.12 774.714 528.12Z" fill="#08090A"/>
<line x1="473.768" y1="139.232" x2="524.768" y2="190.232" stroke="black" stroke-width="5"/>
<defs>
<linearGradient id="paint0_linear_237_148" x1="475.5" y1="0" x2="475.5" y2="648" gradientUnits="userSpaceOnUse">
<stop stop-color="white"/>
<stop offset="1" stop-color="#38AAE4"/>
</linearGradient>
<linearGradient id="paint1_linear_237_148" x1="468.348" y1="246" x2="468.348" y2="521.5" gradientUnits="userSpaceOnUse">
<stop stop-color="white"/>
<stop offset="1" stop-color="white" stop-opacity="0"/>
</linearGradient>
<linearGradient id="paint2_linear_237_148" x1="430.348" y1="295" x2="430.348" y2="570.5" gradientUnits="userSpaceOnUse">
<stop stop-color="#4C1AC4"/>
<stop offset="1" stop-color="white" stop-opacity="0"/>
</linearGradient>
</defs>
</svg>
